<?xml version="1.0" encoding="utf-8"?>
<!-- Generator: Adobe Illustrator 24.0.1, SVG Export Plug-In . SVG Version: 6.00 Build 0)  -->
<svg version="1.1" id="Icon_x5F_contour" xmlns="http://www.w3.org/2000/svg" xmlns:xlink="http://www.w3.org/1999/xlink" x="0px"
	 y="0px" viewBox="0 0 192 192" style="enable-background:new 0 0 192 192;" xml:space="preserve">
<path d="M163.99959,118.66714V48.00015c0-6.61719-5.38281-12-12-12h-112c-6.61719,0-12,5.38281-12,12v70.66699l-12,16.00001v9.33301
	c0,6.61719,5.38281,12,12,12h136c6.61719,0,12-5.38281,12-12v-9.33301L163.99959,118.66714z M39.99959,44.00015h112
	c2.20605,0,4,1.79395,4,4v68h-120v-68C35.99959,45.79409,37.79353,44.00015,39.99959,44.00015z M33.99934,124.00014h124.00049
	l6,8.00001H27.99935L33.99934,124.00014z M163.99959,148.00015h-136c-2.20605,0-4-1.79395-4-4v-4h144v4
	C167.99959,146.20621,166.20564,148.00015,163.99959,148.00015z M128.57985,76.00014l-6.341-16.53027
	c-1.42871-3.73047-4.36621-6.44043-8.05859-7.43457c-3.75-1.00879-7.7959-0.06641-11.11719,2.58691l-7.09668,5.2959
	l-7.09668-5.29688c-3.32324-2.65234-7.36719-3.59668-11.11816-2.58496c-3.69141,0.99316-6.62891,3.70312-8.05664,7.43164
	l-6.34113,16.53222H52.00056v8h12.32147c-1.77972,4.20239-2.716,8.72845-2.716,13.38672c0,3.70319,0.5954,7.26831,1.68341,10.61328
	h8.55219c-1.43347-3.25012-2.2356-6.83887-2.2356-10.61328c0-1.82971,0.20251-3.62927,0.56622-5.38672h5.82776
	c0.00012,4.41821,3.58179,7.99982,8,7.99982c3.69006,0,6.78802-2.50177,7.71185-5.89923h8.57629
	c0.92383,3.39746,4.02179,5.89923,7.71185,5.89923c4.41821,0,7.99988-3.5816,8-7.99982h5.82788
	c0.36371,1.75745,0.56622,3.55701,0.56622,5.38672c0,3.77441-0.80219,7.36316-2.23578,10.61328h8.55225
	c1.08807-3.34497,1.68353-6.9101,1.68353-10.61328c0-4.65826-0.93628-9.18433-2.716-13.38672h12.32245v-8H128.57985z
	 M71.96187,76.00014l5.23792-13.65625c0.49805-1.30176,1.46094-2.23047,2.6416-2.54785
	c1.27734-0.3418,2.71484,0.05762,4.04492,1.13086l8.14355,6.08105c2.27832,1.8623,5.59863,1.86035,7.87305,0l8.02344-5.9873
	l0.12012-0.09375c1.33008-1.07422,2.77051-1.47266,4.04492-1.13086c1.18066,0.31738,2.14453,1.24707,2.64355,2.55078
	l5.23688,13.65332H71.96187z"/>
</svg>
